<svg id="visual" viewBox="0 0 1024 200" width="1024" height="200" xmlns="http://www.w3.org/2000/svg" xmlns:xlink="http://www.w3.org/1999/xlink" version="1.1"><path d="M0 147L7.5 147.7C15 148.3 30 149.7 44.8 136.8C59.7 124 74.3 97 89.2 93.3C104 89.7 119 109.3 133.8 115.7C148.7 122 163.3 115 178.2 106.3C193 97.7 208 87.3 222.8 86C237.7 84.7 252.3 92.3 267.2 98C282 103.7 297 107.3 311.8 113.8C326.7 120.3 341.3 129.7 356.2 124.8C371 120 386 101 400.8 95.5C415.7 90 430.3 98 445.2 98.2C460 98.3 475 90.7 489.8 85.2C504.7 79.7 519.3 76.3 534.2 76.8C549 77.3 564 81.7 578.8 85.3C593.7 89 608.3 92 623.2 99.5C638 107 653 119 667.8 128.3C682.7 137.7 697.3 144.3 712.2 137.2C727 130 742 109 756.8 102.5C771.7 96 786.3 104 801.2 110.7C816 117.3 831 122.7 845.8 127C860.7 131.3 875.3 134.7 890.2 124.2C905 113.7 920 89.3 934.8 79.3C949.7 69.3 964.3 73.7 979.2 75C994 76.3 1009 74.7 1016.5 73.8L1024 73L1024 201L1016.5 201C1009 201 994 201 979.2 201C964.3 201 949.7 201 934.8 201C920 201 905 201 890.2 201C875.3 201 860.7 201 845.8 201C831 201 816 201 801.2 201C786.3 201 771.7 201 756.8 201C742 201 727 201 712.2 201C697.3 201 682.7 201 667.8 201C653 201 638 201 623.2 201C608.3 201 593.7 201 578.8 201C564 201 549 201 534.2 201C519.3 201 504.7 201 489.8 201C475 201 460 201 445.2 201C430.3 201 415.7 201 400.8 201C386 201 371 201 356.2 201C341.3 201 326.7 201 311.8 201C297 201 282 201 267.2 201C252.3 201 237.7 201 222.8 201C208 201 193 201 178.2 201C163.3 201 148.7 201 133.8 201C119 201 104 201 89.2 201C74.3 201 59.7 201 44.8 201C30 201 15 201 7.5 201L0 201Z" fill="var(--md-bg)" stroke-linecap="round" stroke-linejoin="miter"></path></svg>